<svg width="24" height="24" viewBox="0 0 24 24" fill="none" xmlns="http://www.w3.org/2000/svg">
<path d="M19 11.1111C20.1046 11.1111 21 10.2157 21 9.11111V6C21 4.89543 20.1046 4 19 4H16.7C15.5954 4 14.7 4.89543 14.7 6V6.66667H9.3V6C9.3 4.89543 8.40457 4 7.3 4H5C3.89543 4 3 4.89543 3 6V9.11111C3 10.2157 3.89543 11.1111 5 11.1111H7.3C8.40457 11.1111 9.3 10.2157 9.3 9.11111V8.44444H11.1V17.3333H14.7V18C14.7 19.1046 15.5954 20 16.7 20H19C20.1046 20 21 19.1046 21 18V14.8889C21 13.7843 20.1046 12.8889 19 12.8889H16.7C15.5954 12.8889 14.7 13.7843 14.7 14.8889V15.5556H12.9V8.44444H14.7V9.11111C14.7 10.2157 15.5954 11.1111 16.7 11.1111H19ZM7.5 9.33333H4.8V5.77778H7.5V9.33333ZM16.5 14.6667H19.2V18.2222H16.5V14.6667ZM16.5 5.77778H19.2V9.33333H16.5V5.77778Z" />
</svg>
