<svg width="24" height="24" viewBox="0 0 24 24" fill="none" xmlns="http://www.w3.org/2000/svg">
<path d="M14.6674 19.0024C14.703 19.269 14.6141 19.5534 14.4097 19.7401C14.3275 19.8225 14.2298 19.8878 14.1223 19.9324C14.0148 19.977 13.8995 20 13.7831 20C13.6667 20 13.5515 19.977 13.4439 19.9324C13.3364 19.8878 13.2388 19.8225 13.1565 19.7401L9.59257 16.1761C9.49563 16.0814 9.42193 15.9655 9.37722 15.8375C9.33251 15.7095 9.318 15.573 9.33483 15.4384V10.888L5.07763 5.4398C4.9333 5.25452 4.86817 5.01965 4.89648 4.7865C4.92479 4.55335 5.04424 4.34088 5.22872 4.19553C5.39758 4.0711 5.58422 4 5.77975 4H18.2225C18.418 4 18.6047 4.0711 18.7735 4.19553C18.958 4.34088 19.0775 4.55335 19.1058 4.7865C19.1341 5.01965 19.069 5.25452 18.9246 5.4398L14.6674 10.888V19.0024ZM7.59284 5.77754L11.1124 10.2747V15.1807L12.8899 16.9582V10.2658L16.4094 5.77754H7.59284Z"/>
</svg>
