<svg width="24" height="24" viewBox="0 0 24 24" fill="none" xmlns="http://www.w3.org/2000/svg">
<path fill-rule="evenodd" clip-rule="evenodd" d="M15.2639 14.2361H15.5556C16.9611 14.2361 19.5596 14.9754 20.5214 17.7446C20.8212 18.608 20.5623 19.4303 20.043 19.9978C19.5396 20.5479 18.7877 20.875 18 20.875H6C5.21251 20.875 4.46465 20.5491 3.96862 19.9926C3.45625 19.4178 3.22283 18.597 3.52638 17.7465C4.09901 16.142 5.43436 14.4053 8.05857 14.2475C8.50845 14.2205 8.92007 14.3741 9.23611 14.6111L12 16.684L15.2639 14.2361ZM11.125 18.2153L8.18611 16.0111C8.17258 16.0009 8.1621 15.9964 8.15718 15.9948C6.45332 16.0998 5.59336 17.1612 5.17455 18.3347C5.10682 18.5245 5.14588 18.6834 5.27496 18.8282C5.42038 18.9913 5.68292 19.125 6 19.125H11.125V18.2153ZM12.875 19.125H18C18.3169 19.125 18.5935 18.9896 18.752 18.8164C18.8946 18.6606 18.9308 18.4987 18.8682 18.3187C18.2966 16.6729 16.8274 16.089 15.8302 15.9989L12.875 18.2153V19.125Z" />
<mask id="path-3-inside-1" fill="white">
<path fill-rule="evenodd" clip-rule="evenodd" d="M12 12.2501C13.7949 12.2501 15.25 10.795 15.25 9.00012C15.25 7.2052 13.7949 5.75012 12 5.75012C10.2051 5.75012 8.75 7.2052 8.75 9.00012C8.75 10.795 10.2051 12.2501 12 12.2501ZM12 14.0001C14.7614 14.0001 17 11.7615 17 9.00012C17 6.2387 14.7614 4.00012 12 4.00012C9.23857 4.00012 7 6.2387 7 9.00012C7 11.7615 9.23857 14.0001 12 14.0001Z"/>
</mask>
<path d="M12 14.0001C14.7614 14.0001 17 11.7615 17 9.00012H13.5C13.5 9.82855 12.8284 10.5001 12 10.5001V14.0001ZM17 9.00012C17 6.2387 14.7614 4.00012 12 4.00012V7.50012C12.8284 7.50012 13.5 8.17169 13.5 9.00012H17ZM12 4.00012C9.23857 4.00012 7 6.2387 7 9.00012H10.5C10.5 8.17169 11.1716 7.50012 12 7.50012V4.00012ZM7 9.00012C7 11.7615 9.23857 14.0001 12 14.0001V10.5001C11.1716 10.5001 10.5 9.82855 10.5 9.00012H7ZM12 15.7501C15.7279 15.7501 18.75 12.728 18.75 9.00012H15.25C15.25 10.795 13.7949 12.2501 12 12.2501V15.7501ZM18.75 9.00012C18.75 5.2722 15.7279 2.25012 12 2.25012V5.75012C13.7949 5.75012 15.25 7.2052 15.25 9.00012H18.75ZM12 2.25012C8.27208 2.25012 5.25 5.2722 5.25 9.00012H8.75C8.75 7.2052 10.2051 5.75012 12 5.75012V2.25012ZM5.25 9.00012C5.25 12.728 8.27208 15.7501 12 15.7501V12.2501C10.2051 12.2501 8.75 10.795 8.75 9.00012H5.25Z" mask="url(#path-3-inside-1)"/>
</svg>
