<svg width="24" height="24" viewBox="0 0 24 24" fill="none" xmlns="http://www.w3.org/2000/svg">
<path fill-rule="evenodd" clip-rule="evenodd" d="M15.2639 14.2361H15.5556C16.9611 14.2361 19.5596 14.9754 20.5214 17.7446C20.8212 18.608 20.5623 19.4303 20.043 19.9978C19.5396 20.548 18.7877 20.875 18 20.875H6C5.21251 20.875 4.46465 20.5491 3.96862 19.9927C3.45625 19.4179 3.22283 18.5971 3.52638 17.7465C4.09901 16.142 5.43436 14.4054 8.05857 14.2476C8.50845 14.2205 8.92007 14.3741 9.23611 14.6111L12 16.684L15.2639 14.2361ZM11.125 18.2153L8.18611 16.0111C8.17258 16.001 8.1621 15.9964 8.15718 15.9948C6.45332 16.0998 5.59336 17.1613 5.17455 18.3348C5.10682 18.5245 5.14588 18.6834 5.27496 18.8282C5.42038 18.9913 5.68292 19.125 6 19.125H11.125V18.2153ZM12.875 19.125H18C18.3169 19.125 18.5935 18.9896 18.752 18.8164C18.8946 18.6606 18.9308 18.4988 18.8682 18.3188C18.2966 16.6729 16.8274 16.089 15.8302 15.9989L12.875 18.2153V19.125Z" />
<path fill-rule="evenodd" clip-rule="evenodd" d="M12 4.90558L8.37985 5.87096L11.9828 7.07195L15.2813 5.83502L15.3798 5.80687L12 4.90558ZM6.20833 6.99178V11.5556C6.20833 12.0388 5.81658 12.4306 5.33333 12.4306C4.85008 12.4306 4.45833 12.0388 4.45833 11.5556V5.77779C4.45833 5.38137 4.72484 5.03447 5.10788 4.93233L11.7359 3.16486C11.9089 3.11871 12.0911 3.11871 12.2641 3.16486L18.3673 4.79238C19.3726 5.06045 19.3852 6.48251 18.3848 6.76833L16.6385 7.26727C16.8903 8.36272 16.9922 9.75634 16.63 11.019C16.3886 11.8605 15.93 12.6777 15.1399 13.2794C14.3481 13.8825 13.3032 14.2083 12 14.2083C10.6951 14.2083 9.64138 13.882 8.82775 13.2915C8.01692 12.7031 7.51318 11.9023 7.21925 11.0688C6.76635 9.78445 6.78561 8.35688 6.97443 7.24715L6.20833 6.99178ZM8.65906 7.80869C8.54986 8.64496 8.57087 9.63953 8.86964 10.4868C9.072 11.0607 9.39048 11.5376 9.85558 11.8752C10.3179 12.2106 10.9938 12.4583 12 12.4583C13.0079 12.4583 13.6556 12.2101 14.0796 11.8872C14.5052 11.5631 14.7855 11.1025 14.9478 10.5365C15.193 9.68163 15.1429 8.66885 14.9686 7.82129L12.357 8.80065C12.1371 8.88309 11.8957 8.88756 11.6729 8.81331L8.65906 7.80869Z" />
</svg>
